<svg xmlns="http://www.w3.org/2000/svg" viewBox="0 0 660.6 129.6" width="661" height="130" xmlns:c2pa="http://c2pa.org/manifest"><metadata><c2pa:manifest>AAAWgmp1bWIAAAAeanVtZGMycGEAEQAQgAAAqgA4m3EDYzJwYQAAABZcanVtYgAAAEdqdW1kYzJtYQARABCAAACqADibcQN1cm46YzJwYTo2Y2EwOWJhMC1hZDE3LTQ3NzktOGY1My01ODg4NTFkYWI2YzkAAAADl2p1bWIAAAApanVtZGMyYXMAEQAQgAAAqgA4m3EDYzJwYS5hc3NlcnRpb25zAAAAALxqdW1iAAAARGp1bWRjYm9yABEAEIAAAKoAOJtxE2MycGEuaW5ncmVkaWVudC52MwAAAAAYYzJzaHYH+3QhvcTr5LWlavj2Q+MAAABwY2JvcqNpZGM6Zm9ybWF0bWltYWdlL3N2Zyt4bWxqaW5zdGFuY2VJRHgseG1wOmlpZDowMzUzNmM3Ny1iOTQ5LTQ4NGMtOTBiYi0yMTI1ODcwMTU2YmVscmVsYXRpb25zaGlwaHBhcmVudE9mAAAB4mp1bWIAAABBanVtZGNib3IAEQAQgAAAqgA4m3ETYzJwYS5hY3Rpb25zLnYyAAAAABhjMnNot1roeo0jxruz3J//fyw/iAAAAZljYm9yomdhY3Rpb25zgqJmYWN0aW9ua2MycGEub3BlbmVkanBhcmFtZXRlcnOha2luZ3JlZGllbnRzgaJjdXJseC1zZWxmI2p1bWJmPWMycGEuYXNzZXJ0aW9ucy9jMnBhLmluZ3JlZGllbnQudjNkaGFzaFggs/U1xpSA20l7KBvtDNm+xw9mBZK9DFhz8J6n0weF6DmkZmFjdGlvbngdY29tLmFudGhyb3BpYy5jbGF1ZGUucHJvdmlkZWRqcGFyYW1ldGVyc6F4H2NvbS5hbnRocm9waWMub3JpZ2luLWNvbmZpZGVuY2VndW5rbm93bmtkZXNjcmlwdGlvbnhmQ2xhdWRlIHByb3ZpZGVkIHRoaXMgZmlsZSBhdCB0aGUgcmVxdWVzdCBvZiBhIHVzZXIgYW5kIG1heSBoYXZlIGNyZWF0ZWQgb3IgbW9kaWZpZWQgdGhlIGZpbGUgY29udGVudHMubXNvZnR3YXJlQWdlbnShZG5hbWVmQ2xhdWRlcmFsbEFjdGlvbnNJbmNsdWRlZPUAAADIanVtYgAAAEBqdW1kY2JvcgARABCAAACqADibcRNjMnBhLmhhc2guZGF0YQAAAAAYYzJzaCJX71jqQSbIK04JwrBu0VsAAACAY2JvcqVjYWxnZnNoYTI1NmNwYWRNAAAAAAAAAAAAAAAAAGRoYXNoWCCiYA1gqBTf9bxLKwiCFSp0/21bbyXBVWwwBDQlKlTipGRuYW1lbmp1bWJmIG1hbmlmZXN0amV4Y2x1c2lvbnOBomVzdGFydBiaZmxlbmd0aBkeBAAAAj5qdW1iAAAAJ2p1bWRjMmNsABEAEIAAAKoAOJtxA2MycGEuY2xhaW0udjIAAAACD2Nib3KlY2FsZ2ZzaGEyNTZpc2lnbmF0dXJleE1zZWxmI2p1bWJmPS9jMnBhL3VybjpjMnBhOjZjYTA5YmEwLWFkMTctNDc3OS04ZjUzLTU4ODg1MWRhYjZjOS9jMnBhLnNpZ25hdHVyZWppbnN0YW5jZUlEeCx4bXA6aWlkOjQzNWY2ODZlLTZkYzctNGNiZC05MTkyLTFhMDE1Y2I2YjIzN3JjcmVhdGVkX2Fzc2VydGlvbnODomN1cmx4LXNlbGYjanVtYmY9YzJwYS5hc3NlcnRpb25zL2MycGEuaW5ncmVkaWVudC52M2RoYXNoWCCz9TXGlIDbSXsoG+0M2b7HD2YFkr0MWHPwnqfTB4XoOaJjdXJseCpzZWxmI2p1bWJmPWMycGEuYXNzZXJ0aW9ucy9jMnBhLmFjdGlvbnMudjJkaGFzaFggRCdRU6Zz6kPiTw7Z95ZQL4mLfddQtWOoy6MWqMocrJCiY3VybHgpc2VsZiNqdW1iZj1jMnBhLmFzc2VydGlvbnMvYzJwYS5oYXNoLmRhdGFkaGFzaFggg1XuhoEuCEsjymiptp3SetnIWNQtrAFc76abZEyc3Lh0Y2xhaW1fZ2VuZXJhdG9yX2luZm+jZG5hbWVvQW50aHJvcGljIEZpbGVzZ3ZlcnNpb25lMS4wLjBrc3BlY1ZlcnNpb25lMi40LjAAABA4anVtYgAAAChqdW1kYzJjcwARABCAAACqADibcQNjMnBhLnNpZ25hdHVyZQAAABAIY2JvctKEWQISogEmGCFZAgowggIGMIIBjaADAgECAhRA5aAK7sI50L64g/oGQgU9Z1UTADAKBggqhkjOPQQDAzBJMRcwFQYDVQQKEw5BbnRocm9waWMsIFBCQzEuMCwGA1UEAxMlQW50aHJvcGljIENvbnRlbnQgQ3JlZGVudGlhbHMgUm9vdCBDQTAeFw0yNjA4MDcxODQzNTZaFw0yODA4MDYxOTQzNTZaMEQxFzAVBgNVBAoTDkFudGhyb3BpYywgUEJDMSkwJwYDVQQDEyBBbnRocm9waWMgQ2xhdWRlIENvbnRlbnQgU2lnbmluZzBZMBMGByqGSM49AgEGCCqGSM49AwEHA0IABJh6CmvLUBgFFNU0vUKlOVtE6djd17L5SuwX0LemFisBM3dkd/3cyjxFA3Qo5S46fX0/ihY0VZ7mfb9KF703t5OjWDBWMA4GA1UdDwEB/wQEAwIHgDAVBgNVHSUEDjAMBgorBgEEAYPoXgIBMAwGA1UdEwEB/wQCMAAwHwYDVR0jBBgwFoAUzlHiBIFOZFsj+OPEz5o+nMHXXMIwCgYIKoZIzj0EAwMDZwAwZAIwMXMdFJ4BetLLVY7ORuE9noqbbAZOZn/aArXyTwFAZfKrPzxF2vPoJNf1+UCdg1XGAjBwX1zd9WGqYkqmL5SFqw1QySjr1zJfpJM9+1rdDwSPLMOPOjKuiXjoU/pUUeG9RwmhY3BhZFkNngAAAAAAAAAAAAAAAAAAAAAAAAAAAAAAAAAAAAAAAAAAAAAAAAAAAAAAAAAAAAAAAAAAAAAAAAAAAAAAAAAAAAAAAAAAAAAAAAAAAAAAAAAAAAAAAAAAAAAAAAAAAAAAAAAAAAAAAAAAAAAAAAAAAAAAAAAAAAAAAAAAAAAAAAAAAAAAAAAAAAAAAAAAAAAAAAAAAAAAAAAAAAAAAAAAAAAAAAAAAAAAAAAAAAAAAAAAAAAAAAAAAAAAAAAAAAAAAAAAAAAAAAAAAAAAAAAAAAAAAAAAAAAAAAAAAAAAAAAAAAAAAAAAAAAAAAAAAAAAAAAAAAAAAAAAAAAAAAAAAAAAAAAAAAAAAAAAAAAAAAAAAAAAAAAAAAAAAAAAAAAAAAAAAAAAAAAAAAAAAAAAAAAAAAAAAAAAAAAAAAAAAAAAAAAAAAAAAAAAAAAAAAAAAAAAAAAAAAAAAAAAAAAAAAAAAAAAAAAAAAAAAAAAAAAAAAAAAAAAAAAAAAAAAAAAAAAAAAAAAAAAAAAAAAAAAAAAAAAAAAAAAAAAAAAAAAAAAAAAAAAAAAAAAAAAAAAAAAAAAAAAAAAAAAAAAAAAAAAAAAAAAAAAAAAAAAAAAAAAAAAAAAAAAAAAAAAAAAAAAAAAAAAAAAAAAAAAAAAAAAAAAAAAAAAAAAAAAAAAAAAAAAAAAAAAAAAAAAAAAAAAAAAAAAAAAAAAAAAAAAAAAAAAAAAAAAAAAAAAAAAAAAAAAAAAAAAAAAAAAAAAAAAAAAAAAAAAAAAAAAAAAAAAAAAAAAAAAAAAAAAAAAAAAAAAAAAAAAAAAAAAAAAAAAAAAAAAAAAAAAAAAAAAAAAAAAAAAAAAAAAAAAAAAAAAAAAAAAAAAAAAAAAAAAAAAAAAAAAAAAAAAAAAAAAAAAAAAAAAAAAAAAAAAAAAAAAAAAAAAAAAAAAAAAAAAAAAAAAAAAAAAAAAAAAAAAAAAAAAAAAAAAAAAAAAAAAAAAAAAAAAAAAAAAAAAAAAAAAAAAAAAAAAAAAAAAAAAAAAAAAAAAAAAAAAAAAAAAAAAAAAAAAAAAAAAAAAAAAAAAAAAAAAAAAAAAAAAAAAAAAAAAAAAAAAAAAAAAAAAAAAAAAAAAAAAAAAAAAAAAAAAAAAAAAAAAAAAAAAAAAAAAAAAAAAAAAAAAAAAAAAAAAAAAAAAAAAAAAAAAAAAAAAAAAAAAAAAAAAAAAAAAAAAAAAAAAAAAAAAAAAAAAAAAAAAAAAAAAAAAAAAAAAAAAAAAAAAAAAAAAAAAAAAAAAAAAAAAAAAAAAAAAAAAAAAAAAAAAAAAAAAAAAAAAAAAAAAAAAAAAAAAAAAAAAAAAAAAAAAAAAAAAAAAAAAAAAAAAAAAAAAAAAAAAAAAAAAAAAAAAAAAAAAAAAAAAAAAAAAAAAAAAAAAAAAAAAAAAAAAAAAAAAAAAAAAAAAAAAAAAAAAAAAAAAAAAAAAAAAAAAAAAAAAAAAAAAAAAAAAAAAAAAAAAAAAAAAAAAAAAAAAAAAAAAAAAAAAAAAAAAAAAAAAAAAAAAAAAAAAAAAAAAAAAAAAAAAAAAAAAAAAAAAAAAAAAAAAAAAAAAAAAAAAAAAAAAAAAAAAAAAAAAAAAAAAAAAAAAAAAAAAAAAAAAAAAAAAAAAAAAAAAAAAAAAAAAAAAAAAAAAAAAAAAAAAAAAAAAAAAAAAAAAAAAAAAAAAAAAAAAAAAAAAAAAAAAAAAAAAAAAAAAAAAAAAAAAAAAAAAAAAAAAAAAAAAAAAAAAAAAAAAAAAAAAAAAAAAAAAAAAAAAAAAAAAAAAAAAAAAAAAAAAAAAAAAAAAAAAAAAAAAAAAAAAAAAAAAAAAAAAAAAAAAAAAAAAAAAAAAAAAAAAAAAAAAAAAAAAAAAAAAAAAAAAAAAAAAAAAAAAAAAAAAAAAAAAAAAAAAAAAAAAAAAAAAAAAAAAAAAAAAAAAAAAAAAAAAAAAAAAAAAAAAAAAAAAAAAAAAAAAAAAAAAAAAAAAAAAAAAAAAAAAAAAAAAAAAAAAAAAAAAAAAAAAAAAAAAAAAAAAAAAAAAAAAAAAAAAAAAAAAAAAAAAAAAAAAAAAAAAAAAAAAAAAAAAAAAAAAAAAAAAAAAAAAAAAAAAAAAAAAAAAAAAAAAAAAAAAAAAAAAAAAAAAAAAAAAAAAAAAAAAAAAAAAAAAAAAAAAAAAAAAAAAAAAAAAAAAAAAAAAAAAAAAAAAAAAAAAAAAAAAAAAAAAAAAAAAAAAAAAAAAAAAAAAAAAAAAAAAAAAAAAAAAAAAAAAAAAAAAAAAAAAAAAAAAAAAAAAAAAAAAAAAAAAAAAAAAAAAAAAAAAAAAAAAAAAAAAAAAAAAAAAAAAAAAAAAAAAAAAAAAAAAAAAAAAAAAAAAAAAAAAAAAAAAAAAAAAAAAAAAAAAAAAAAAAAAAAAAAAAAAAAAAAAAAAAAAAAAAAAAAAAAAAAAAAAAAAAAAAAAAAAAAAAAAAAAAAAAAAAAAAAAAAAAAAAAAAAAAAAAAAAAAAAAAAAAAAAAAAAAAAAAAAAAAAAAAAAAAAAAAAAAAAAAAAAAAAAAAAAAAAAAAAAAAAAAAAAAAAAAAAAAAAAAAAAAAAAAAAAAAAAAAAAAAAAAAAAAAAAAAAAAAAAAAAAAAAAAAAAAAAAAAAAAAAAAAAAAAAAAAAAAAAAAAAAAAAAAAAAAAAAAAAAAAAAAAAAAAAAAAAAAAAAAAAAAAAAAAAAAAAAAAAAAAAAAAAAAAAAAAAAAAAAAAAAAAAAAAAAAAAAAAAAAAAAAAAAAAAAAAAAAAAAAAAAAAAAAAAAAAAAAAAAAAAAAAAAAAAAAAAAAAAAAAAAAAAAAAAAAAAAAAAAAAAAAAAAAAAAAAAAAAAAAAAAAAAAAAAAAAAAAAAAAAAAAAAAAAAAAAAAAAAAAAAAAAAAAAAAAAAAAAAAAAAAAAAAAAAAAAAAAAAAAAAAAAAAAAAAAAAAAAAAAAAAAAAAAAAAAAAAAAAAAAAAAAAAAAAAAAAAAAAAAAAAAAAAAAAAAAAAAAAAAAAAAAAAAAAAAAAAAAAAAAAAAAAAAAAAAAAAAAAAAAAAAAAAAAAAAAAAAAAAAAAAAAAAAAAAAAAAAAAAAAAAAAAAAAAAAAAAAAAAAAAAAAAAAAAAAAAAAAAAAAAAAAAAAAAAAAAAAAAAAAAAAAAAAAAAAAAAAAAAAAAAAAAAAAAAAAAAAAAAAAAAAAAAAAAAAAAAAAAAAAAAAAAAAAAAAAAAAAAAAAAAAAAAAAAAAAAAAAAAAAAAAAAAAAAAAAAAAAAAAAAAAAAAAAAAAAAAAAAAAAAAAAAAAAAAAAAAAAAAAAAAAAAAAAAAAAAAAAAAAAAAAAAAAAAAAAAAAAAAAAAAAAAAAAAAAAAAAAAAAAAAAAAAAAAAAAAAAAAAAAAAAAAAAAAAAAAAAAAAAAAAAAAAAAAAAAAAAAAAAAAAAAAAAAAAAAAAAAAAAAAAAAAAAAAAAAAAAAAAAAAAAAAAAAAAAAAAAAAAAAAAAAAAAAAAAAAAAAAAAAAAAAAAAAAAAAAAAAAAAAAAAAAAAAAAAAAAAAAAAAAAAAAAAAAAAAAAAAAAAAAAAAAAAAAAAAAAAAAAAAAAAAAAAAAAAAAAAAAAAAAAAAAAAAAAAAAAAAAAAAAAAAAAAAAAAAAAAAAAAAAAAAAAAAAAAAAAAAAAAAAAAAAAAAAAAAAAAAAAAAAAAAAAAAAAAAAAAAAAAAAAAAAAAAAAAAAAAAAAAAAAAAAAAAAAAAAAAAAAAAAAAAAAAAAAAAAAAAAAAAAAAAAAAAAAAAAAAAAAAAAAAAAAAAAAAAAAAAAAAAAAAAAAAAAAAAAAAAAAAAAAAAAAAAAAAAAAAAAAAAAAAAAAAAAAAAAAAAAAAAAAAAAAAAAAAAAAAAAAAAAAAAAAAAAAAAAAAAAAAAAAAAAAAAAAAAAAAAAAAAAAAAAAAAAAAAAAAAAAAAAAAAAAAAAAAAAAAAAAAAAAAAAAAAAAAAAAAAAAAAAAAAAAAAAAAAAAAAAAAAAAAAAAAAAAAAAAAAAAAAAAAAAAAAAAAAAAAAAAAAAAAAAAAAAAAAAAAAAAAAAAAAAAAAAAAAAAAAAAAAAAAAAAAAAAAAAAAAAAAAAAAAAAAAAAAAAAAAAAAAAAAAAAAAAAAAAAAAAAAAAAAAAAAAAAAAAAAAAAAAAAAAAAAAAAAAAAAAAAAAAAAAAAAAAAAAAAAAAAAAAAAAAAAAAAAAAAAAAAAAAAAAAAAAAAAAAAAAAAAAAAAAAAAAAAAAAAAAAAAAAAAAAAAAAAAAAAAAAAAAAAAAAAAAAAAAAAAAAAAAAAAAAAAAAAAAAAAAAAAAAAAAAAAAAAAAAAAAAAAAAAAAAAAAAAAAAAAAAAAAAAAAAAAAAAAAAAAAAAAAAAAAAAAAAAAAAAAAAAAAAAAAAAAAAAAAAAAAAAAAAAAAAAAAAAAAAAAAAAAAAAAAAAAAAAAAAAAAAAAAAAAAAAAAAAAAAAAAAAAAAAAAAAAAAAAAAAAAAAAAAAAAAAAAAAAAAAAAAAAAAAAAAAAAAAAAAAAAAAAAAAAAAAAAAAAAAAAAAAAAAAAAAAAAAAAAAAAAAAAAAAAAAAAAAAAPZYQPJx4p+LMJx1zB01k9eSXCNIavGoV757RXwURdzwhLa3GPkClFS5Gt84rcdqd1xbdlkeQeJkViLOitAQhit5ekc=</c2pa:manifest></metadata><defs><linearGradient id="ginstrumentdark" gradientUnits="userSpaceOnUse" x1="8.990000000000002" y1="7.750000000000007" x2="123.07" y2="129.27"><stop offset="0" stop-color="#F8F5FF"/><stop offset="0.5" stop-color="#DCD3FF"/><stop offset="1" stop-color="#A896F5"/></linearGradient><clipPath id="cinstrumentdark"><path d="M 31.930000000000003 5.270000000000007 H 97.65000000000002 A 26.659999999999997 26.659999999999997 0 0 1 124.31000000000002 31.930000000000003 V 97.65000000000002 A 26.659999999999997 26.659999999999997 0 0 1 97.65000000000002 124.31000000000002 H 31.930000000000003 A 26.659999999999997 26.659999999999997 0 0 1 5.270000000000007 97.65000000000002 V 31.930000000000003 A 26.659999999999997 26.659999999999997 0 0 1 31.930000000000003 5.270000000000007 Z M 52.861200000000004 34.65800000000001 A 19.691200000000002 19.691200000000002 0 0 0 33.17 54.34920000000001 V 78.20680000000002 A 19.691200000000002 19.691200000000002 0 0 0 52.861200000000004 97.89800000000002 H 99.03880000000001 A 19.691200000000002 19.691200000000002 0 0 0 118.73 78.20680000000002 V 54.34920000000001 A 19.691200000000002 19.691200000000002 0 0 0 99.03880000000001 34.65800000000001 Z"/></clipPath></defs><g clip-path="url(#cinstrumentdark)" opacity="0.62"><g transform="rotate(45 64.79 64.79)"><line x1="-166.7" y1="-835.21" x2="-166.7" y2="964.79" stroke="url(#ginstrumentdark)" stroke-width="7.4"/><line x1="-150.1" y1="-835.21" x2="-150.1" y2="964.79" stroke="url(#ginstrumentdark)" stroke-width="7.4"/><line x1="-133.6" y1="-835.21" x2="-133.6" y2="964.79" stroke="url(#ginstrumentdark)" stroke-width="7.4"/><line x1="-117.1" y1="-835.21" x2="-117.1" y2="964.79" stroke="url(#ginstrumentdark)" stroke-width="7.4"/><line x1="-100.5" y1="-835.21" x2="-100.5" y2="964.79" stroke="url(#ginstrumentdark)" stroke-width="7.4"/><line x1="-84.0" y1="-835.21" x2="-84.0" y2="964.79" stroke="url(#ginstrumentdark)" stroke-width="7.4"/><line x1="-67.5" y1="-835.21" x2="-67.5" y2="964.79" stroke="url(#ginstrumentdark)" stroke-width="7.4"/><line x1="-50.9" y1="-835.21" x2="-50.9" y2="964.79" stroke="url(#ginstrumentdark)" stroke-width="7.4"/><line x1="-34.4" y1="-835.21" x2="-34.4" y2="964.79" stroke="url(#ginstrumentdark)" stroke-width="7.4"/><line x1="-17.9" y1="-835.21" x2="-17.9" y2="964.79" stroke="url(#ginstrumentdark)" stroke-width="7.4"/><line x1="-1.3" y1="-835.21" x2="-1.3" y2="964.79" stroke="url(#ginstrumentdark)" stroke-width="7.4"/><line x1="15.2" y1="-835.21" x2="15.2" y2="964.79" stroke="url(#ginstrumentdark)" stroke-width="7.4"/><line x1="31.7" y1="-835.21" x2="31.7" y2="964.79" stroke="url(#ginstrumentdark)" stroke-width="7.4"/><line x1="48.3" y1="-835.21" x2="48.3" y2="964.79" stroke="url(#ginstrumentdark)" stroke-width="7.4"/><line x1="64.8" y1="-835.21" x2="64.8" y2="964.79" stroke="url(#ginstrumentdark)" stroke-width="7.4"/><line x1="81.3" y1="-835.21" x2="81.3" y2="964.79" stroke="url(#ginstrumentdark)" stroke-width="7.4"/><line x1="97.9" y1="-835.21" x2="97.9" y2="964.79" stroke="url(#ginstrumentdark)" stroke-width="7.4"/><line x1="114.4" y1="-835.21" x2="114.4" y2="964.79" stroke="url(#ginstrumentdark)" stroke-width="7.4"/><line x1="130.9" y1="-835.21" x2="130.9" y2="964.79" stroke="url(#ginstrumentdark)" stroke-width="7.4"/><line x1="147.5" y1="-835.21" x2="147.5" y2="964.79" stroke="url(#ginstrumentdark)" stroke-width="7.4"/><line x1="164.0" y1="-835.21" x2="164.0" y2="964.79" stroke="url(#ginstrumentdark)" stroke-width="7.4"/><line x1="180.5" y1="-835.21" x2="180.5" y2="964.79" stroke="url(#ginstrumentdark)" stroke-width="7.4"/><line x1="197.1" y1="-835.21" x2="197.1" y2="964.79" stroke="url(#ginstrumentdark)" stroke-width="7.4"/><line x1="213.6" y1="-835.21" x2="213.6" y2="964.79" stroke="url(#ginstrumentdark)" stroke-width="7.4"/><line x1="230.1" y1="-835.21" x2="230.1" y2="964.79" stroke="url(#ginstrumentdark)" stroke-width="7.4"/><line x1="246.7" y1="-835.21" x2="246.7" y2="964.79" stroke="url(#ginstrumentdark)" stroke-width="7.4"/><line x1="263.2" y1="-835.21" x2="263.2" y2="964.79" stroke="url(#ginstrumentdark)" stroke-width="7.4"/><line x1="279.7" y1="-835.21" x2="279.7" y2="964.79" stroke="url(#ginstrumentdark)" stroke-width="7.4"/><line x1="296.3" y1="-835.21" x2="296.3" y2="964.79" stroke="url(#ginstrumentdark)" stroke-width="7.4"/></g></g><path d="M 31.930000000000003 2.7900000000000063 H 97.65 A 29.139999999999997 29.139999999999997 0 0 1 126.79 31.930000000000003 V 97.65 A 29.139999999999997 29.139999999999997 0 0 1 97.65 126.79 H 31.930000000000003 A 29.139999999999997 29.139999999999997 0 0 1 2.7900000000000063 97.65 V 31.930000000000003 A 29.139999999999997 29.139999999999997 0 0 1 31.930000000000003 2.7900000000000063 Z" fill="none" stroke="url(#ginstrumentdark)" stroke-width="5.0" opacity="0.5"/><path d="M 52.861200000000004 43.33800000000001 H 99.03880000000001 A 11.0112 11.0112 0 0 1 110.05000000000001 54.34920000000001 V 78.20680000000002 A 11.0112 11.0112 0 0 1 99.03880000000001 89.21800000000002 H 52.861200000000004 A 11.0112 11.0112 0 0 1 41.85 78.20680000000002 V 54.34920000000001 A 11.0112 11.0112 0 0 1 52.861200000000004 43.33800000000001 Z" fill="url(#ginstrumentdark)"/><path d="M195.68 101.69000000000001Q182.08 101.69000000000001 174.03000000000003 95.44Q165.98000000000002 89.19 164.58 77.79H177.08Q177.98000000000002 84.39 182.98000000000002 88.04Q187.98000000000002 91.69000000000001 196.08 91.69000000000001Q202.78000000000003 91.69000000000001 206.33000000000004 89.24000000000001Q209.88000000000002 86.79 209.88000000000002 82.39Q209.88000000000002 78.49000000000001 207.68 76.09Q205.48000000000002 73.69 200.28000000000003 72.19L187.28000000000003 68.29Q177.38000000000002 65.29 172.73000000000002 60.39Q168.08 55.49 168.08 48.09Q168.08 41.89 171.28000000000003 37.29Q174.48000000000002 32.69 180.33 30.189999999999998Q186.18 27.689999999999998 193.98000000000002 27.689999999999998Q205.98000000000002 27.689999999999998 213.13000000000002 33.54Q220.28000000000003 39.39 221.28000000000003 49.39H208.78000000000003Q207.68 43.39 203.78000000000003 40.540000000000006Q199.88000000000002 37.690000000000005 193.28000000000003 37.690000000000005Q187.48000000000002 37.690000000000005 184.08 39.99000000000001Q180.68 42.290000000000006 180.68 46.290000000000006Q180.68 49.59 182.73000000000002 51.89Q184.78000000000003 54.190000000000005 190.38000000000002 55.89L203.58 59.89Q213.48000000000002 62.790000000000006 217.98000000000002 67.79Q222.48000000000002 72.79 222.48000000000002 80.49000000000001Q222.48000000000002 90.69 215.43 96.19Q208.38000000000002 101.69000000000001 195.68 101.69000000000001ZM230.54000000000002 100.79V28.790000000000006H243.14000000000004V58.690000000000005Q245.54000000000002 54.690000000000005 249.44000000000003 52.09Q254.44000000000003 48.790000000000006 261.44000000000005 48.790000000000006Q269.74 48.790000000000006 274.39 53.49000000000001Q279.04 58.190000000000005 279.04 65.99000000000001V100.79H266.34000000000003V68.59Q266.34000000000003 63.89000000000001 263.94000000000005 61.49000000000001Q261.54 59.09 256.94000000000005 59.09Q252.94000000000003 59.09 249.79000000000002 60.89Q246.64000000000004 62.690000000000005 244.89000000000004 65.89Q243.14000000000004 69.09 243.14000000000004 73.29V100.79ZM313.20000000000005 101.79Q305.1 101.79 299.05 98.39000000000001Q293.0 94.99000000000001 289.65 88.99000000000001Q286.3 82.99000000000001 286.3 75.19000000000001Q286.3 67.39000000000001 289.65 61.44000000000001Q293.0 55.49 299.0 52.14Q305.0 48.790000000000006 313.0 48.790000000000006Q320.6 48.790000000000006 326.20000000000005 51.940000000000005Q331.8 55.09 334.9 60.790000000000006Q338.0 66.49000000000001 338.0 74.09Q338.0 75.49000000000001 337.9 76.69Q337.8 77.89 337.6 79.09H299.1Q299.8 84.59 302.70000000000005 87.89Q306.40000000000003 92.29 313.3 92.29Q317.3 92.29 320.3 90.79Q323.3 89.29 324.70000000000005 86.19H336.6Q334.1 93.39 328.15000000000003 97.59Q322.20000000000005 101.79 313.20000000000005 101.79ZM299.3 70.29H325.20000000000005Q324.70000000000005 64.89000000000001 322.0 61.89Q318.70000000000005 58.290000000000006 312.8 58.290000000000006Q306.40000000000003 58.290000000000006 302.70000000000005 62.690000000000005Q300.20000000000005 65.59 299.3 70.29ZM369.56000000000006 101.79Q361.46000000000004 101.79 355.41 98.39000000000001Q349.36 94.99000000000001 346.01 88.99000000000001Q342.66 82.99000000000001 342.66 75.19000000000001Q342.66 67.39000000000001 346.01 61.44000000000001Q349.36 55.49 355.36 52.14Q361.36 48.790000000000006 369.36 48.790000000000006Q376.96000000000004 48.790000000000006 382.56000000000006 51.940000000000005Q388.16 55.09 391.26 60.790000000000006Q394.36 66.49000000000001 394.36 74.09Q394.36 75.49000000000001 394.26 76.69Q394.16 77.89 393.96000000000004 79.09H355.46000000000004Q356.16 84.59 359.06000000000006 87.89Q362.76000000000005 92.29 369.66 92.29Q373.66 92.29 376.66 90.79Q379.66 89.29 381.06000000000006 86.19H392.96000000000004Q390.46000000000004 93.39 384.51000000000005 97.59Q378.56000000000006 101.79 369.56000000000006 101.79ZM355.66 70.29H381.56000000000006Q381.06000000000006 64.89000000000001 378.36 61.89Q375.06000000000006 58.290000000000006 369.16 58.290000000000006Q362.76000000000005 58.290000000000006 359.06000000000006 62.690000000000005Q356.56000000000006 65.59 355.66 70.29ZM402.32000000000005 100.79V49.790000000000006H414.62000000000006V59.190000000000005Q417.12000000000006 54.89 421.2200000000001 52.09Q426.2200000000001 48.790000000000006 433.2200000000001 48.790000000000006Q441.5200000000001 48.790000000000006 446.1700000000001 53.49000000000001Q450.82000000000005 58.190000000000005 450.82000000000005 65.99000000000001V100.79H438.12000000000006V68.59Q438.12000000000006 63.89000000000001 435.72 61.49000000000001Q433.32000000000005 59.09 428.7200000000001 59.09Q424.7200000000001 59.09 421.57000000000005 60.89Q418.4200000000001 62.690000000000005 416.6700000000001 65.89Q414.9200000000001 69.09 414.9200000000001 73.29V100.79ZM481.38000000000005 101.79Q470.7800000000001 101.79 464.4800000000001 97.34Q458.18000000000006 92.89 457.58000000000004 84.99000000000001H469.08000000000004Q469.58000000000004 88.89 472.7800000000001 90.89Q475.9800000000001 92.89 481.38000000000005 92.89Q486.2800000000001 92.89 488.7300000000001 91.34Q491.18000000000006 89.79 491.18000000000006 86.89Q491.18000000000006 84.79 489.7800000000001 83.44Q488.38000000000005 82.09 484.4800000000001 81.19L476.2800000000001 79.29Q467.88000000000005 77.49000000000001 463.83000000000004 73.64000000000001Q459.7800000000001 69.79 459.7800000000001 63.99Q459.7800000000001 56.89 465.2300000000001 52.84Q470.68000000000006 48.790000000000006 480.2800000000001 48.790000000000006Q489.7800000000001 48.790000000000006 495.5300000000001 52.84Q501.2800000000001 56.89 501.88000000000005 63.99H490.38000000000005Q489.88000000000005 60.89 487.23 59.290000000000006Q484.58000000000004 57.690000000000005 479.9800000000001 57.690000000000005Q475.68000000000006 57.690000000000005 473.4800000000001 59.040000000000006Q471.2800000000001 60.39 471.2800000000001 62.99Q471.2800000000001 64.99000000000001 472.9800000000001 66.34Q474.68000000000006 67.69 478.68000000000006 68.69L487.4800000000001 70.69Q494.9800000000001 72.39 498.83000000000004 76.59Q502.68000000000006 80.79 502.68000000000006 86.49000000000001Q502.68000000000006 93.79 497.08000000000004 97.79Q491.4800000000001 101.79 481.38000000000005 101.79ZM509.8400000000001 100.79V28.790000000000006H522.44V58.690000000000005Q524.8400000000001 54.690000000000005 528.7400000000001 52.09Q533.7400000000001 48.790000000000006 540.7400000000001 48.790000000000006Q549.0400000000001 48.790000000000006 553.69 53.49000000000001Q558.3400000000001 58.190000000000005 558.3400000000001 65.99000000000001V100.79H545.6400000000001V68.59Q545.6400000000001 63.89000000000001 543.2400000000001 61.49000000000001Q540.8400000000001 59.09 536.2400000000001 59.09Q532.2400000000001 59.09 529.0900000000001 60.89Q525.94 62.690000000000005 524.19 65.89Q522.44 69.09 522.44 73.29V100.79ZM592.8000000000001 101.79Q584.7 101.79 578.5500000000001 98.39000000000001Q572.4000000000001 94.99000000000001 569.0000000000001 88.94Q565.6000000000001 82.89 565.6000000000001 75.09Q565.6000000000001 67.29 569.0000000000001 61.39Q572.4000000000001 55.49 578.5500000000001 52.14Q584.7 48.790000000000006 592.8000000000001 48.790000000000006Q601.0000000000001 48.790000000000006 607.1000000000001 52.14Q613.2 55.49 616.6000000000001 61.39Q620.0000000000001 67.29 620.0000000000001 75.09Q620.0000000000001 82.89 616.5500000000002 88.94Q613.1000000000001 94.99000000000001 607.0000000000001 98.39000000000001Q600.9000000000001 101.79 592.8000000000001 101.79ZM592.8000000000001 91.69000000000001Q596.8000000000001 91.69000000000001 600.0 89.64000000000001Q603.2 87.59 605.0 83.84Q606.8000000000001 80.09 606.8000000000001 74.99000000000001Q606.8000000000001 67.49000000000001 602.8500000000001 63.190000000000005Q598.9000000000001 58.89 592.8000000000001 58.89Q586.7 58.89 582.7 63.190000000000005Q578.7 67.49000000000001 578.7 74.99000000000001Q578.7 80.09 580.5500000000001 83.84Q582.4000000000001 87.59 585.5500000000001 89.64000000000001Q588.7 91.69000000000001 592.8000000000001 91.69000000000001ZM649.5600000000001 101.79Q640.1600000000001 101.79 635.71 97.34Q631.26 92.89 631.26 83.99000000000001V59.690000000000005H621.46V49.790000000000006H631.26V38.190000000000005L643.96 33.49000000000001V49.790000000000006H657.86V59.690000000000005H643.96V84.29Q643.96 87.99000000000001 645.96 89.79Q647.96 91.59 652.26 91.59Q653.96 91.59 655.3100000000001 91.34Q656.6600000000001 91.09 657.86 90.69V100.49000000000001Q656.6600000000001 101.09 654.46 101.44Q652.26 101.79 649.5600000000001 101.79Z" fill="#EDEDF3"/></svg>